<svg xmlns="http://www.w3.org/2000/svg" viewBox="0 0 1785 576">
  <path d="m246.625 67.688 2.412.006c11.864.052 23.405.377 34.963 3.306l2.447.618C298.1 74.667 309.177 78.721 320 84l1.917.93c15.352 7.547 28.4 17.67 41.083 29.07l2.047 1.824C371.089 121.535 376.05 128.348 381 135l1.294 1.734c18.866 25.683 28.786 56.62 30.269 88.266l.13 2.637c.105 2.12.207 4.242.307 6.363l1.73-1.652c24.81-23.075 55.974-35.598 89.914-34.48 26.943 1.508 51.233 15.02 69.735 34.167C583.347 242.18 599 260.897 599 275l-2.573 1.354c-20.595 10.83-20.595 10.83-40.927 22.146-9.748 5.587-19.646 10.859-29.583 16.098a947.422 947.422 0 0 0-28.718 15.783c-9.42 5.369-19.04 10.331-28.678 15.29-3.288 1.733-6.514 3.567-9.73 5.429-1.791.9-1.791.9-3.791.9 7.69 10.547 19.281 16.478 31.998 18.719 20.622 2.897 40.942-4.098 57.565-16.219 11.861-9.499 20.549-20.087 25.271-34.688.98-2.815 1.585-4.495 4.26-5.953 4.443.215 8.147 1.872 12.218 3.579l2.534 1.025c2.056.834 4.107 1.68 6.154 2.537l-.048-1.842c-.67-30.042 4.92-55.895 25.048-79.158l1.906-2.379c18.136-21.728 48.112-36.812 76.278-39.457C728.25 196.413 754.885 204.11 778 224c14.426 12.858 26.003 29.947 33 48v3l-2.573 1.354c-20.595 10.83-20.595 10.83-40.927 22.146-9.748 5.587-19.646 10.859-29.583 16.098a947.422 947.422 0 0 0-28.718 15.783c-9.42 5.369-19.04 10.331-28.678 15.29-3.288 1.733-6.514 3.567-9.73 5.429-1.791.9-1.791.9-3.791.9 7.69 10.547 19.281 16.478 31.998 18.719 20.622 2.897 40.942-4.098 57.564-16.219 11.862-9.499 20.55-20.087 25.272-34.688.646-1.855.646-1.855 2.166-4.812 4.85-2.032 8.943.078 13.547 1.86l2.46.924a771.5 771.5 0 0 1 5.123 1.957 772.957 772.957 0 0 0 7.874 2.97c1.66.631 3.32 1.264 4.98 1.898l2.39.89c1.911.748 3.775 1.615 5.626 2.501 2.582 7.745-3.305 18.205-6.813 25.25-16.093 31.279-46.397 51.754-79.268 62.442-29.804 9.2-60.295 7.042-88.009-7.477-5.754-3.155-10.84-7.055-15.91-11.215l-2.047-1.621C621.991 385.614 612.867 371.677 606 358c-1.862 2.309-3.713 4.623-5.508 6.984-22.973 30.133-56.69 50.047-94.265 55.57-27.126 3.237-54.715-2.796-76.79-19.179A393.741 393.741 0 0 1 424 397l-2.047-1.621C404.713 381.305 394.323 360.56 387 340c-2.9 2.76-5.222 5.588-7.5 8.875-26.887 37.49-67.01 62.536-112.437 70.65-9.514 1.509-18.739 1.748-28.35 1.702h-5.06c-4.534.002-9.068-.01-13.602-.024-4.756-.013-9.51-.014-14.266-.016-8.985-.006-17.97-.023-26.954-.043-10.237-.022-20.474-.033-30.711-.043-21.04-.021-42.08-.056-63.12-.101-.07-26.94-.123-53.879-.155-80.818-.016-12.51-.037-25.02-.071-37.53-.03-10.91-.05-21.82-.056-32.73-.004-5.771-.013-11.542-.035-17.313-.02-5.445-.027-10.89-.022-16.335-.001-1.986-.007-3.971-.019-5.957C84.406 187.798 99.635 148.93 129 118l1.42-1.52c30.204-32.138 72.33-49.006 116.205-48.793Zm-67.54 101.988c-22.453 25.018-23.412 55.693-23.28 87.55l.008 8.062c.006 6.3.023 12.6.043 18.9.022 7.185.033 14.37.043 21.555.021 14.753.056 29.505.101 44.257 10.511.047 21.022.082 31.533.104 4.883.01 9.765.024 14.648.047 4.726.022 9.453.034 14.18.039 1.788.003 3.576.01 5.365.021 9.046.054 17.98-.113 26.98-1.09l2.15-.233c27.113-3.285 51.676-18.729 68.666-39.773 19.27-25.436 24.339-57.616 20.528-88.758-2.513-17.637-9.893-35.233-22.05-48.357l-1.394-1.534c-17.162-18.724-39.95-30.17-65.54-31.44-27.993-.742-52.607 10.63-71.98 30.65Zm266.696 95.89c-8.177 10.726-13.207 22.305-13.031 35.872l.016 2.242c.093 5.347.588 10.198 2.234 15.32l2 1c2.384-.982 2.384-.982 5.074-2.508l3.175-1.72 3.438-1.897 3.564-1.942c8.263-4.51 16.452-9.15 24.627-13.818 9.751-5.534 19.665-10.755 29.578-15.991 9.922-5.244 19.773-10.6 29.544-16.124-7.812-11.03-19.126-18.877-32.598-21.715-21.466-2.548-43.219 4.623-57.62 21.281Zm212 0c-8.177 10.726-13.207 22.305-13.031 35.872l.016 2.242c.093 5.347.588 10.198 2.234 15.32l2 1c2.384-.982 2.384-.982 5.074-2.508l3.175-1.72 3.438-1.897 3.564-1.942c8.263-4.51 16.452-9.15 24.627-13.818 9.751-5.534 19.665-10.755 29.578-15.991 9.922-5.244 19.773-10.6 29.544-16.124-7.812-11.03-19.126-18.877-32.598-21.715-21.466-2.548-43.219 4.623-57.62 21.281Z" fill="#00A651"/>
  <path d="M1682.144 26"/>
</svg>
