<svg xmlns="http://www.w3.org/2000/svg" viewBox="0 0 1785 576">
  <path d="m246.625 67.688 2.412.006c11.864.052 23.405.377 34.963 3.306l2.447.618C298.1 74.667 309.177 78.721 320 84l1.917.93C337.269 92.477 350.317 102.6 363 114l2.047 1.824C371.089 121.535 376.05 128.348 381 135l1.294 1.734c18.866 25.683 28.786 56.62 30.269 88.266l.13 2.637c.105 2.12.207 4.242.307 6.363l1.73-1.652c24.81-23.075 55.974-35.598 89.914-34.48 26.943 1.508 51.233 15.02 69.735 34.167C583.347 242.18 599 260.897 599 275l-2.573 1.354c-20.595 10.83-20.595 10.83-40.927 22.146-9.748 5.587-19.646 10.859-29.583 16.098a947.422 947.422 0 0 0-28.718 15.783c-9.42 5.369-19.04 10.331-28.678 15.29-3.288 1.733-6.514 3.567-9.73 5.429-1.791.9-1.791.9-3.791.9 7.69 10.547 19.281 16.478 31.998 18.719 20.622 2.897 40.942-4.098 57.565-16.219 11.861-9.499 20.549-20.087 25.271-34.688.98-2.815 1.585-4.495 4.26-5.953 4.443.215 8.147 1.872 12.218 3.579l2.534 1.025c2.056.834 4.107 1.68 6.154 2.537l-.048-1.842c-.67-30.042 4.92-55.895 25.048-79.158l1.906-2.379c18.136-21.728 48.112-36.812 76.278-39.457C728.25 196.413 754.885 204.11 778 224c14.426 12.858 26.003 29.947 33 48v3l-2.573 1.354c-20.595 10.83-20.595 10.83-40.927 22.146-9.748 5.587-19.646 10.859-29.583 16.098a947.422 947.422 0 0 0-28.718 15.783c-9.42 5.369-19.04 10.331-28.678 15.29-3.288 1.733-6.514 3.567-9.73 5.429-1.791.9-1.791.9-3.791.9 7.69 10.547 19.281 16.478 31.998 18.719 20.622 2.897 40.942-4.098 57.564-16.219 11.862-9.499 20.55-20.087 25.272-34.688.646-1.855.646-1.855 2.166-4.812 4.85-2.032 8.943.078 13.547 1.86l2.46.924c1.71.646 3.418 1.299 5.123 1.957a772.957 772.957 0 0 0 7.874 2.97c1.66.631 3.32 1.264 4.98 1.898l2.39.89c1.911.748 3.775 1.615 5.626 2.501 2.582 7.745-3.305 18.205-6.813 25.25-16.093 31.279-46.397 51.754-79.268 62.442-29.804 9.2-60.295 7.042-88.009-7.477-5.754-3.155-10.84-7.055-15.91-11.215l-2.047-1.621C621.991 385.614 612.867 371.677 606 358c-1.862 2.309-3.713 4.623-5.508 6.984-22.973 30.133-56.69 50.047-94.265 55.57-27.126 3.237-54.715-2.796-76.79-19.179-1.824-1.443-3.639-2.9-5.437-4.375l-2.047-1.621C404.713 381.305 394.323 360.56 387 340c-2.9 2.76-5.222 5.588-7.5 8.875-26.887 37.49-67.01 62.536-112.437 70.65-9.514 1.509-18.739 1.748-28.35 1.702h-5.06c-4.534.002-9.068-.01-13.602-.024-4.756-.013-9.51-.014-14.266-.016-8.985-.006-17.97-.023-26.954-.043-10.237-.022-20.474-.033-30.711-.043-21.04-.021-42.08-.056-63.12-.101-.07-26.94-.123-53.879-.155-80.818-.016-12.51-.037-25.02-.071-37.53-.03-10.91-.05-21.82-.056-32.73-.004-5.771-.013-11.542-.035-17.313-.02-5.445-.027-10.89-.022-16.335-.001-1.986-.007-3.971-.019-5.957C84.406 187.798 99.635 148.93 129 118l1.42-1.52c30.204-32.138 72.33-49.006 116.205-48.793Zm-67.54 101.988c-22.453 25.018-23.412 55.693-23.28 87.55l.008 8.062c.006 6.3.023 12.6.043 18.9.022 7.185.033 14.37.043 21.555.021 14.753.056 29.505.101 44.257 10.511.047 21.022.082 31.533.104 4.883.01 9.765.024 14.648.047 4.726.022 9.453.034 14.18.039 1.788.003 3.576.01 5.365.021 9.046.054 17.98-.113 26.98-1.09l2.15-.233c27.113-3.285 51.676-18.729 68.666-39.773 19.27-25.436 24.339-57.616 20.528-88.758-2.513-17.637-9.893-35.233-22.05-48.357l-1.394-1.534c-17.162-18.724-39.95-30.17-65.54-31.44-27.993-.742-52.607 10.63-71.98 30.65Zm266.696 95.89c-8.177 10.726-13.207 22.305-13.031 35.872l.016 2.242c.093 5.347.588 10.198 2.234 15.32l2 1c2.384-.982 2.384-.982 5.074-2.508l3.175-1.72 3.438-1.897 3.564-1.942c8.263-4.51 16.452-9.15 24.627-13.818 9.751-5.534 19.665-10.755 29.578-15.991 9.922-5.244 19.773-10.6 29.544-16.124-7.812-11.03-19.126-18.877-32.598-21.715-21.466-2.548-43.219 4.623-57.62 21.281Zm212 0c-8.177 10.726-13.207 22.305-13.031 35.872l.016 2.242c.093 5.347.588 10.198 2.234 15.32l2 1c2.384-.982 2.384-.982 5.074-2.508l3.175-1.72 3.438-1.897 3.564-1.942c8.263-4.51 16.452-9.15 24.627-13.818 9.751-5.534 19.665-10.755 29.578-15.991 9.922-5.244 19.773-10.6 29.544-16.124-7.812-11.03-19.126-18.877-32.598-21.715-21.466-2.548-43.219 4.623-57.62 21.281Z" fill="#00A651"/>
  <path d="M1682.144 268.133c7.139 6.384 12.23 13.525 16.856 21.867l1.52 2.734c8.208 16.367 9.468 35.378 7.48 53.266h-123c8.57 17.14 12.442 23.186 29 30 16.363 5.099 33.96 2.772 49-4.938 3.029-1.725 5.526-3.361 7.875-5.937C1673 363 1673 363 1675.273 362.504c4.03.733 5.921 3.33 8.477 6.308l1.57 1.765c4.715 5.343 9.25 10.841 13.68 16.423-9.122 14.594-25.716 21.998-41.816 26.309-18.336 3.982-40.303 3.602-58.184-2.309l-2-.65c-9.216-3.097-17.233-7.502-25-13.35l-2.203-1.645c-15.2-12.296-24.696-32.14-26.797-51.355-1.736-23.976 2.415-45.514 17-65l1.492-2.016c12.775-16.023 33.054-24.786 52.945-27.296 24.258-2.636 48.795 2.396 67.707 18.445Zm-89.285 30.328c-4.031 5.505-7.859 11.524-7.859 18.539h83c-2.533-11.397-7.086-20.39-17-27-19.37-10.33-43.086-8.847-58.14 8.46ZM1132.715 265.25c11.321 10.624 18.738 25.324 19.377 41.014a530.7 530.7 0 0 1 .037 8.315l.006 3.19c.004 3.47.001 6.938-.002 10.407l.003 7.231c.001 5.044-.001 10.089-.006 15.133-.005 6.482-.002 12.963.004 19.444.004 4.973.002 9.946 0 14.92 0 2.39 0 4.781.002 7.173.003 3.33-.001 6.66-.007 9.99l.007 3.021-.009 2.732-.001 2.387C1152 412 1152 412 1151 413c-2.727.101-5.429.14-8.156.133l-2.477.003c-1.732 0-3.464-.001-5.196-.006-2.66-.005-5.32 0-7.98.007-1.678 0-3.356-.002-5.035-.004l-2.427.006c-5.614-.024-5.614-.024-6.729-1.139a144.504 144.504 0 0 1-.563-6.063l-.253-3.347L1112 400l-2.75 2.625c-12.3 10.448-27.445 12.949-43.125 12.813l-3.717-.023c-9.049-.165-16.943-1.006-25.408-4.415l-3.207-1.285c-12.106-5.467-21.114-14.383-26.605-26.465-4.045-11.07-3.855-25.698.488-36.61 6.586-13.133 15.697-20.463 29.324-25.64 10.67-3.288 20.613-4.147 31.715-4.098l3.67.005c3.85.005 7.701.018 11.553.03 2.617.006 5.235.01 7.853.014 6.403.011 12.806.028 19.209.049-.434-2.23-.88-4.457-1.332-6.684l-.75-3.76c-1.714-6.637-5.005-11.552-10.668-15.431-7.788-4.16-15.608-5.668-24.375-5.563l-2.762.028c-15.835.4-29.96 5.641-43.113 14.41h-4a3960.315 3960.315 0 0 1-5.927-10.889 1596.8 1596.8 0 0 0-2.016-3.7c-.97-1.776-1.933-3.554-2.897-5.333l-1.761-3.237c-1.153-2.342-1.923-4.294-2.399-6.841 30.67-26.003 91.92-31.101 123.715-4.75Zm-82.277 87.25-1.942 1.781c-3.257 3.742-2.83 8.293-2.773 12.996.528 5.187 3.382 7.785 6.84 11.41 7.334 5.699 17.547 6.145 26.437 5.313 13.346-2.163 21.934-7.69 30.438-17.938 2.118-3.88 1.737-8.02 1.66-12.316l-.022-2.257c-.018-1.83-.046-3.66-.076-5.489-6.368-.077-12.736-.129-19.104-.165-2.163-.015-4.326-.035-6.488-.061-3.123-.037-6.246-.054-9.369-.067-.955-.015-1.91-.03-2.893-.047-8.112-.002-16.597 1.022-22.708 6.84ZM1279.563 248.879c20.124-.497 39.019 4.948 53.75 18.934 18.11 19.084 18.008 44.439 17.917 69.152v6.516c-.002 4.514-.01 9.027-.024 13.541-.017 5.798-.021 11.595-.02 17.392 0 4.467-.006 8.934-.013 13.4a5612.5 5612.5 0 0 0-.006 6.42c-.002 2.97-.011 5.94-.022 8.91l.002 2.69c-.033 6.052-.033 6.052-1.147 7.166-2.945.101-5.867.14-8.813.133l-2.678.003c-1.873 0-3.746-.001-5.62-.006-2.877-.005-5.754 0-8.631.007-1.815 0-3.63-.002-5.446-.004l-2.626.006c-6.071-.024-6.071-.024-7.186-1.139a239.617 239.617 0 0 1-.142-8.72l-.01-2.774c-.008-1.998-.013-3.996-.017-5.993-.007-3.171-.022-6.342-.041-9.513-.052-9.02-.1-18.039-.116-27.059-.01-5.512-.04-11.025-.081-16.537a907.932 907.932 0 0 1-.015-6.281c.189-21.469.189-21.469-10.105-39.701-7.608-7.108-16.668-8.734-26.84-8.567-10.602.582-21.283 4.025-28.633 12.02-10.694 13.687-10.133 29.956-10.26 46.523-.022 2.744-.049 5.488-.077 8.232-.07 6.803-.13 13.606-.19 20.409-.05 5.775-.105 11.55-.165 17.324-.026 2.709-.047 5.417-.068 8.126l-.05 4.937-.013 2.293c-.063 5.167-.063 5.167-1.177 6.281-2.873.101-5.72.14-8.594.133l-2.611.003c-1.826 0-3.652-.001-5.478-.006-2.805-.005-5.61 0-8.415.007-1.77 0-3.539-.002-5.308-.004l-2.56.006c-5.919-.024-5.919-.024-7.034-1.139-.099-2.06-.126-4.125-.127-6.188l-.005-1.98c-.004-2.206 0-4.411.003-6.617l-.006-4.725c-.004-4.289-.002-8.578 0-12.867.003-4.479 0-8.957 0-13.436-.003-7.522 0-15.045.005-22.567.005-8.71.003-17.42-.002-26.129-.005-7.464-.005-14.928-.003-22.392.002-4.464.002-8.928-.001-13.392-.003-4.196-.001-8.392.005-12.588 0-1.544 0-3.089-.002-4.633-.002-2.1.001-4.199.006-6.298l.001-3.569C1191 252 1191 252 1192 251c2.716-.113 5.405-.164 8.121-.168l2.47-.01c1.728-.005 3.455-.007 5.183-.007 2.649-.002 5.298-.02 7.947-.04 1.675-.003 3.35-.005 5.025-.005l2.412-.022c5.613.023 5.613.023 7.842 2.252.414 3.04.414 3.04.625 6.625l.227 3.602L1232 266l1.582-1.355c13.14-10.794 29.22-14.974 45.98-15.766ZM1462.137 248.879c22.427-.726 44.187 6.004 60.738 21.371 4.273 4.53 12.125 13.359 12.125 19.75-3.894 2.246-7.79 4.488-11.688 6.726-1.325.761-2.649 1.524-3.972 2.287-1.907 1.1-3.817 2.196-5.727 3.292l-1.777 1.029c-3.202 1.83-6.376 3.39-9.836 4.666l-1.25-1.723c-8.27-11.056-16.852-17.889-30.738-20.02-11.254-.963-22.962.635-32.309 7.407-1.607 1.401-3.161 2.863-4.703 4.336h-2l-.816 1.715c-1.24 2.392-2.658 4.587-4.121 6.848-7.072 11.93-7.827 25.748-5.372 39.234 3.079 10.974 8.914 19.65 18.309 26.203 12.227 6.269 26.038 8.485 39.375 4.438 10.431-4.057 17.15-10.45 23.625-19.438 3.474.674 6.144 2.058 9.21 3.8l3.024 1.714 3.141 1.798 3.117 1.764c4.955 2.82 9.828 5.667 14.508 8.924-3.387 8-7.888 13.868-14 20l-2.09 2.16c-16.739 16.178-39.663 18.348-61.746 18.117-23.425-.617-44.377-10.277-60.598-27.277-16.648-19.461-20.89-41.925-19.566-67 1.324-15.685 8.138-29.94 18-42l1.57-2.098c13.073-16.52 34.614-24.64 54.856-27.363 3.57-.336 7.133-.457 10.71-.66ZM852.3 201.748l2.61.022h2.675c1.867.004 3.734.012 5.6.024 2.87.018 5.737.02 8.606.02l5.432.018 2.616.003c6.045.049 6.045.049 7.161 1.165.097 2.228.122 4.458.12 6.688l.003 2.143c.002 2.388-.004 4.776-.01 7.163l.001 5.114c0 4.642-.006 9.285-.013 13.927-.006 4.846-.006 9.692-.008 14.538-.003 9.184-.011 18.367-.021 27.55-.011 10.452-.017 20.904-.022 31.356-.01 21.507-.028 43.014-.05 64.521l1.668-.003c13.378-.022 26.756-.038 40.133-.049 6.47-.005 12.939-.012 19.408-.023 6.238-.011 12.475-.017 18.713-.02 2.385-.002 4.77-.005 7.156-.01 3.329-.008 6.658-.009 9.986-.009l3.021-.01 2.733.004 2.388-.003C994 376 994 376 995 377c.1 2.582.14 5.136.133 7.719l.003 2.342c0 1.638-.001 3.276-.006 4.913-.005 2.515 0 5.03.007 7.546 0 1.587-.002 3.174-.004 4.761l.006 2.295c-.024 5.309-.024 5.309-1.139 6.424-1.921.099-3.846.126-5.77.127l-3.799.009-4.206-.007-4.4.006c-3.994.004-7.987.002-11.98 0-4.171-.003-8.341 0-12.512 0-7.004.003-14.009 0-21.013-.005-8.11-.005-16.22-.003-24.33.002-6.95.005-13.9.005-20.85.003-4.157-.002-8.314-.002-12.47.001-3.908.003-7.814.001-11.721-.005-1.438 0-2.876 0-4.314.002-1.955.002-3.91-.002-5.865-.006l-3.323-.001C845 413 845 413 844 412a198.84 198.84 0 0 1-.134-8.003l-.007-2.572c-.006-2.867-.005-5.734-.004-8.6l-.01-6.139c-.01-5.574-.012-11.148-.012-16.723-.001-4.645-.005-9.29-.008-13.935-.009-10.953-.011-21.907-.01-32.86 0-11.32-.01-22.64-.026-33.959-.013-9.7-.018-19.402-.018-29.103 0-5.801-.002-11.603-.013-17.404-.01-5.454-.01-10.908-.003-16.363.002-2.006 0-4.013-.007-6.02-.008-2.73-.003-5.46.005-8.189l-.016-2.432c.045-7.13 1.55-7.923 8.563-7.95Z"/>
</svg>
